
<?xml version="1.0" standalone="no"?>
<!DOCTYPE svg PUBLIC "-//W3C//DTD SVG 1.1//EN" "http://www.w3.org/Graphics/SVG/1.1/DTD/svg11.dtd" >
<svg xmlns="http://www.w3.org/2000/svg">
  <metadata>Generated by IcoMoon</metadata>
  <defs>
    <font id="icomoon" horiz-adv-x="1024">
      <font-face units-per-em="1024" ascent="960" descent="-64" />
      <missing-glyph horiz-adv-x="1024" />
      <glyph unicode="&#x20;" horiz-adv-x="512" d="" />
      <glyph unicode="&#xe900;" glyph-name="search" d="M953.218 107.725c-52.334 51.882-104.688 103.779-157.024 155.659 10.467 17.748 20.938 35.502 31.405 53.252 18.158 35.666 30.365 75.996 39.596 120.159 17.826 85.253-6.65 175.287-31.403 232.123-49.783 114.313-141.093 193.33-267.624 230.759-32.818 9.709-68.908 9.267-107.869 13.654-15.018-0.91-30.040-1.82-45.058-2.731-32.582-5.724-64.72-10.784-92.85-21.847-114.035-44.85-198.273-126.349-243.048-240.315-100.523-255.872 77.705-473.205 259.432-536.616 54.803-19.124 147.514-25.637 211.642-9.558 58.752 14.729 104.358 39.11 148.831 66.907 44.6-44.601 89.214-89.215 133.812-133.813 16.139-16.141 34.555-45.301 58.714-51.888 28.581-7.791 78.411 43.41 88.752 60.080 16.538 26.655-16.525 53.396-27.308 64.175zM599.572 189.651c-32.844-14.189-68.199-20.446-109.233-27.308-56.79-9.5-113.789 8.472-150.198 23.213-134.899 54.612-273.2 222.081-202.085 424.65 36.626 104.324 109.995 176.227 211.642 215.739 23.21 5.46 46.426 10.924 69.637 16.385 13.652 0.911 27.31 1.82 40.962 2.731 31.707-4.005 61.564-3.375 88.753-10.924 96.235-26.721 166.108-86.181 211.639-163.852 15.714-26.804 27.219-59.724 35.502-92.849 46.463-185.77-81.56-338.076-196.62-387.785z" />
      <glyph unicode="&#xe901;" glyph-name="down" horiz-adv-x="788" d="M393.846-24.615l354.462 405.662h-708.923l354.462-405.662zM181.169 381.046h425.354v539.569h-425.354v-539.569z" />
      <glyph unicode="&#xe902;" glyph-name="refresh" d="M259.413 120.32c34.133-30.72 71.68-51.2 116.053-68.267 85.333-30.72 177.493-34.133 262.827-3.413 34.133 13.653 68.267 27.307 95.573 51.2 71.68 51.2 122.88 122.88 146.773 208.213 13.653 51.2 17.067 102.4 10.24 157.013v3.413c0 13.653 10.24 27.307 23.893 30.72 3.413 0 3.413 0 6.827 0 13.653 0 23.893-10.24 27.307-23.893 0-3.413 0-10.24 3.413-13.653 10.24-112.64-20.48-225.28-88.747-314.027-30.72-37.547-64.853-71.68-105.813-98.987-34.133-23.893-71.68-40.96-112.64-54.613-102.4-34.133-215.040-27.307-314.027 13.653-40.96 17.067-81.92 44.373-116.053 75.093 0-17.067 0-34.133 0-51.2 0-6.827-3.413-13.653-6.827-17.067-3.413-6.827-13.653-10.24-20.48-10.24-10.24 0-17.067 6.827-20.48 13.653-3.413 3.413-3.413 10.24-3.413 13.653 0 40.96-3.413 81.92 0 119.467 0 3.413 0 6.827 3.413 10.24 3.413 10.24 13.653 17.067 23.893 17.067 40.96 3.413 81.92 0 119.467 0 10.24 0 20.48-6.827 23.893-17.067s3.413-20.48-3.413-30.72c-6.827-6.827-13.653-10.24-20.48-10.24h-51.2zM764.587 704c-34.133 27.307-71.68 51.2-112.64 68.267-92.16 37.547-197.973 34.133-290.133-3.413-34.133-13.653-64.853-34.133-95.573-58.027s-58.027-54.613-81.92-92.16c-44.373-71.68-64.853-153.6-58.027-238.933 0-6.827 3.413-17.067 3.413-23.893v-3.413c0-3.413-3.413-10.24-3.413-13.653-3.413-6.827-10.24-10.24-20.48-13.653-6.827 0-17.067 0-23.893 6.827-6.827 3.413-10.24 10.24-10.24 17.067 0 3.413 0 10.24-3.413 13.653-6.827 54.613-3.413 109.227 10.24 163.84 10.24 44.373 30.72 85.333 54.613 122.88 51.2 78.507 126.293 143.36 215.040 177.493 47.787 17.067 98.987 27.307 150.187 30.72 6.827 0 10.24 0 17.067 0 81.92 0 160.427-23.893 228.693-68.267 20.48-13.653 37.547-27.307 58.027-40.96 0 17.067 0 30.72 0 47.787 0 13.653 13.653 23.893 27.307 27.307h3.413c13.653 0 27.307-13.653 27.307-27.307 0-40.96 3.413-81.92 0-119.467 0-3.413 0-6.827-3.413-10.24-3.413-10.24-13.653-17.067-23.893-17.067-40.96-3.413-81.92-3.413-122.88 0-13.653 0-23.893 10.24-23.893 23.893-3.413 13.653 3.413 23.893 13.653 30.72 3.413 3.413 6.827 3.413 13.653 3.413v0h51.2z" />
      <glyph unicode="&#xe903;" glyph-name="up" horiz-adv-x="788" d="M563.2-24.615v496.246h185.108l-354.462 448.985-354.462-448.985h185.108v-496.246h338.708z" />
      <glyph unicode="&#xe904;" glyph-name="help" d="M730.453 506.027c-13.653 27.307-30.72 54.613-51.2 75.093s-47.787 37.547-75.093 51.2c-27.307 13.653-61.44 20.48-92.16 20.48s-64.853-6.827-92.16-17.067c-27.307-13.653-54.613-30.72-75.093-51.2s-37.547-47.787-51.2-75.093c-13.653-30.72-20.48-61.44-20.48-95.573s6.827-64.853 20.48-92.16c13.653-27.307 30.72-54.613 51.2-75.093s47.787-37.547 75.093-51.2c30.72-13.653 61.44-17.067 92.16-17.067s64.853 6.827 92.16 17.067c27.307 13.653 54.613 30.72 75.093 51.2s37.547 47.787 51.2 75.093c13.653 30.72 20.48 61.44 20.48 92.16s-6.827 64.853-20.48 92.16v0zM662.187 263.68c-40.96-40.96-92.16-61.44-150.187-61.44-54.613 0-109.227 20.48-150.187 61.44s-61.44 92.16-61.44 150.187c0 54.613 20.48 109.227 61.44 150.187s92.16 61.44 150.187 61.44c54.613 0 109.227-20.48 150.187-61.44s61.44-92.16 61.44-150.187c0-54.613-23.893-109.227-61.44-150.187v0zM512 553.813c-20.48 0-40.96-6.827-58.027-23.893-13.653-13.653-23.893-34.133-23.893-54.613 0-6.827 6.827-13.653 13.653-13.653s13.653 6.827 13.653 13.653c0 13.653 6.827 27.307 17.067 37.547s23.893 13.653 37.547 13.653c30.72 0 54.613-23.893 54.613-54.613 0-13.653-6.827-27.307-13.653-37.547-10.24-10.24-23.893-17.067-37.547-17.067 0 0 0 0 0 0s0 0 0 0c-6.827 0-13.653-6.827-13.653-13.653v-51.2c0-6.827 6.827-13.653 13.653-13.653s13.653 6.827 13.653 13.653v37.547c17.067 3.413 30.72 10.24 44.373 23.893s23.893 34.133 23.893 58.027c-3.413 44.373-40.96 81.92-85.333 81.92v0zM512 314.88c-6.827 0-13.653-6.827-13.653-13.653v0c0-6.827 6.827-13.653 13.653-13.653s13.653 6.827 13.653 13.653v0c0 6.827-6.827 13.653-13.653 13.653v0z" />
      <glyph unicode="&#xe905;" glyph-name="warning" d="M529.067 342.187c-23.893 0-44.373 20.48-44.373 44.373v273.067c0 17.067 10.24 30.72 23.893 37.547s30.72 6.827 44.373 0c13.653-6.827 23.893-23.893 23.893-37.547v-273.067c-3.413-23.893-23.893-44.373-47.787-44.373v0zM576.853 205.653c0-27.307-20.48-47.787-47.787-47.787s-51.2 20.48-51.2 47.787v0c0 27.307 20.48 47.787 47.787 47.787 27.307 3.413 51.2-20.48 51.2-47.787v0zM529.067-64c-102.4 0-201.387 30.72-283.307 88.747-17.067 10.24-34.133 23.893-34.133 44.373v3.413c0 23.893 20.48 44.373 44.373 44.373 13.653 0 20.48-6.827 34.133-13.653 68.267-51.2 153.6-78.507 238.933-78.507 225.28 0 406.187 180.907 406.187 406.187s-180.907 406.187-406.187 406.187c-225.28 0-406.187-180.907-406.187-406.187 0-61.44 13.653-119.467 37.547-174.080 0 0 20.48-30.72 20.48-47.787v-3.413c0-23.893-20.48-44.373-44.373-44.373-20.48 0-34.133 17.067-44.373 34.133-40.96 71.68-61.44 153.6-61.44 238.933 3.413 269.653 225.28 491.52 498.347 491.52s494.933-221.867 494.933-494.933c0-129.707-51.2-256-143.36-351.573-95.573-92.16-221.867-143.36-351.573-143.36v0z" />
      <glyph unicode="&#xe906;" glyph-name="error" d="M180.907 782.507c75.093 75.093 170.667 122.88 279.893 139.947 129.707 17.067 259.413-13.653 365.227-92.16s174.080-194.56 194.56-324.267c37.547-269.653-150.187-518.827-419.84-559.787-112.64-17.067-228.693 6.827-327.68 68.267-17.067 10.24-20.48 30.72-10.24 47.787s30.72 20.48 47.787 10.24c81.92-51.2 184.32-71.68 279.893-58.027 232.107 34.133 392.533 249.173 358.4 477.867-17.067 112.64-75.093 211.627-163.84 279.893-92.16 68.267-201.387 95.573-314.027 78.507-232.107-34.133-392.533-249.173-358.4-477.867 6.827-61.44 27.307-119.467 58.027-170.667 10.24-17.067 6.827-37.547-10.24-47.787s-37.547-6.827-47.787 10.24c-37.547 58.027-61.44 126.293-71.68 194.56-20.48 133.12 13.653 262.827 92.16 368.64 13.653 17.067 30.72 37.547 47.787 54.613v0zM580.267 437.76l153.6 150.187c13.653 13.653 13.653 37.547 0 51.2s-37.547 13.653-51.2 0l-153.6-150.187-150.187 150.187c-13.653 13.653-37.547 13.653-51.2 0s-13.653-37.547 0-51.2l150.187-150.187-150.187-150.187c-13.653-13.653-13.653-37.547 0-51.2 6.827-6.827 17.067-10.24 23.893-10.24 10.24 0 17.067 3.413 23.893 10.24l150.187 150.187 153.6-153.6c6.827-6.827 17.067-10.24 23.893-10.24 10.24 0 17.067 3.413 23.893 10.24 13.653 13.653 13.653 37.547 0 51.2l-146.773 153.6z" />
      <glyph unicode="&#xe907;" glyph-name="app" d="M503.818 533.298v-75.186h21.514c29.174 0 43.744 12.686 43.744 38.044 0 24.77-14.422 37.14-43.294 37.14h-21.966zM793.168 630.834v209.97c0 30.936-25.070 55.992-55.992 55.992h-447.942c-30.92 0-55.992-25.056-55.992-55.992v-209.97h-104.448v-349.95h104.446v-223.968c0-30.922 25.070-55.992 55.992-55.992h447.942c30.922 0 55.992 25.070 55.992 55.992v223.968h103.43v349.95h-103.43zM737.178 826.806v-195.972h-447.938l-0.008 195.972h447.944zM621.27 498.112c0-23.854-8.75-42.978-26.246-57.36-17.496-14.394-39.37-21.284-65.642-20.682h-25.56v-81.2h-49.622v232.924h80.16c57.932 0 86.912-24.564 86.912-73.68zM262.036 392.252l-17.14-53.38h-53.84l85.258 232.92h58.35l83.606-232.92h-54.132l-17.442 53.38h-84.658zM513.21 28.92c-15.46 0-28.010 12.536-28.010 27.996s12.55 27.996 28.010 27.996 27.996-12.534 27.996-27.996-12.536-27.996-27.996-27.996zM737.178 112.908h-447.944l0.008 167.976h447.936v-167.976zM790.956 440.754c-17.484-14.394-39.37-21.284-65.63-20.682h-25.562v-81.2h-49.624v232.924h80.134c57.96 0 86.914-24.564 86.914-73.68 0-23.856-8.736-42.98-26.234-57.36zM721.716 533.3h-21.954v-75.186h21.488c29.174 0 43.772 12.686 43.772 38.044 0 24.77-14.436 37.142-43.306 37.142zM304.894 531.644h-1.368c-0.6-6.808-1.94-13.382-4.046-19.7l-26.622-81.35h62.11l-26.464 80.75c-1.71 5.112-2.914 11.88-3.61 20.3z" />
      <glyph unicode="&#xe908;" glyph-name="qq" d="M224.504 489.164l-1.532 4.716-1.216 6.196-0.856 3.388v13.93l1.442 5.45 1.532 5.822 1.982 6.048 2.656 6.78 3.514 7.026 5 7.050v4.954l0.496 4.606 0.72 6.306 2.118 7.016 1.982 7.636 1.576 3.524 1.802 3.256 2.342 3.636 2.478 2.68v17.432l1.486 8.988 1.486 10.416 2.614 12.478 3.602 12.96 2.704 7.152 2.656 7.758 2.93 7.264 3.512 7.746 3.558 8.492 4.1 7.984 4.596 8.492 5.81 8.49 2.656 4.842 2.884 3.998 6.216 8.964 6.396 8.964 7.296 9.212 7.794 8.976 8.424 8.828 8.828 9.098 10.676 9.81 6.802 5.944 8.242 6.42 8.38 5.686 9.054 5.452 8.692 4.842 9.82 3.998 10.406 4.988 10.36 3.378 10.36 3.514 11.17 3.502 11.172 2.668 11.756 2.196 11.894 1.926 23.466 3.176 12.526 0.698h36.932l12.344-1.554 12.388-1.476 12.612-1.328 11.712-2.792 12.386-2.646 11.578-3.020 12.746-3.4 11.622-4.132 11.172-4.72 11.89-4.976 10.856-5.452 10.586-6.036 10.316-6.688 8.918-6.172 4.144-3.512 4.324-2.534 8.29-7.038 6.98-6.792 6.938-7.026 6.8-7.758 5.586-7.512 6.622-7.748 4.64-8.356 4.684-7.398 5-8.616 4.102-7.498 6.98-15.88 3.468-8.232 2.656-7.624 2.66-8.242 2.388-7.758 1.71-6.668 2.162-7.872 3.784-14.052 2.434-12.242 1.53-11.88 1.352-9.562 2.16-14.538 0.496-2.318 1.714-2.66 4.594-7.51 2.926-5.078 2.66-5.338 3.376-5.688 2.93-6.802 1.89-7.026 2.118-7.624 1.578-7.86 0.718-3.886 0.634-4.73v-4.122l-0.634-4.12v-5.102l-1.214-4.954-2.208-9.572-2.522-4.842-1.848-5.452v-1.338l0.856-1.702 2.522-3.998 10.902-16.126 8.65-12.094 4.096-8.13 5.586-8.84 4.866-9.696 5.586-10.406 5.54-11.64 6.306-13.214 3.514-8.108 3.244-7.87 2.836-8.368 2.75-7.512 2.070-7.87 2.164-7.41 2.7-14.414 2.118-14.776 1.486-13.084v-18.412l-0.99-6.566-1.396-11.26-1.938-10.17-3.018-9.202-1.126-3.75-2.070-4.492-1.758-3.152-2.342-3.874-4.73-5.582-2.342-2.548-2.478-2.176-3.018-1.328-2.704-1.328-2.206-0.72h-3.38l-2.16 0.72-4.144 2.052-1.89 1.328-1.986 1.452-2.16 1.948-2.164 2.186-3.602 3.996-4.324 5.676-3.378 5.842-3.334 4.71-3.288 5.452-4.64 9.694-5.226 10.066-0.584 0.362h-0.858l-2.16-1.588-1.216-2.646-2.028-3.278-3.558-9.82-5.316-13.93-6.892-16.722-5.134-8.368-5.406-8.716-6.442-9.808-6.802-9.594-3.468-4.346-4.234-4.722-9.73-9.582 0.856-0.836 1.352-1.346 4.818-2.896 20.228-9.706 8.828-4.958 8.378-4.84 8.332-6.070 7.434-6.306 3.602-2.784 2.702-3.26 2.794-3.776 2.296-4.124 1.22-3.376 1.53-4.122 0.63-3.514 0.722-4.12-0.722-2.77v-2.792l-0.63-2.918-1.53-2.656-0.586-2.074-1.352-2.532-3.696-4.978-3.378-3.998-2.612-3.018-2.206-2.196-5.586-4.1-6.308-3.546-6.756-3.38-7.162-3.264-8.108-3.144-4.278-1.35-3.876-1.070-9.276-2.196-9.686-2.050-9.686-2.072-10.538-1.698-10.946-0.476-11.124-1.328h-34.642l-12.524 0.722-11.62 1.082-12.524 1.698-12.432 1.34-13.106 1.824-12.704 3.154-12.386 2.42-12.298 3.514-12.612 4.482-12.388 3.762-6.53 2.15-5.814 2.094-3.648 1.432-3.648 0.72h-10.27l-11.89 0.868-6.040 0.608-7.746 0.854-5-4.482-6.8-4.244-9.19-4.494-10.18-5.574-6.172-3.040-6.44-2.4-14.28-5.82-7.746-1.948-8.11-2.184-11.306-2.174-7.026-0.598-7.478-0.608-7.792-0.854-9.1-0.374h-37.026l-20.946 0.374-20.27 2.060-10.316 1.44-19.592 2.918-9.686 1.948-9.010 2.904-8.962 2.050-8.064 3.266-7.702 3.040-7.072 3.402-6.216 3.748-6.172 4.494-2.116 2.174-2.748 2.646-2.074 2.33-1.89 2.66-1.712 2.658-1.352 2.668-1.936 5.686-0.72 2.906-0.856 3.288v3.018l0.856 3.378v3.424l0.72 3.39v6.778l0.314 3.638 1.622 4.122 1.352 4.124 2.432 4.964 1.802 1.926 1.442 2.196 3.874 4.718 3.062 2.42 2.884 1.702 2.656 2.17 4.28 1.34 3.378 2.052 4.19 2.188 4.864 1.438 4.82 1.476 5.586 1.216 11.666 1.552 6.802 0.496 1.802 0.608h0.36l0.856 0.744v0.82l-1.216 1.702-3.65 1.7-9.052 7.884-6.082 4.842-7.072 6.174-7.072 6.89-7.432 8.864-8.468 9.922-3.198 5.342-4.19 5.568-3.648 6.44-3.244 7.016-4.414 6.666-2.882 7.624-3.378 7.636-3.424 8.49-2.524 8.108-2.296 10.068-0.766 0.36h-0.676l-0.36 0.72h-0.902l-1.396-0.72-0.766-0.36-0.99-1.702-0.36-2.060-0.722-1.824-1.306-3.018-4.144-7.398-2.162-4.494-3.378-3.874-3.65-4.706-4.008-5.226-4.234-4.606-4.954-4.468-4.642-4.24-5.044-3.296-5.584-3.502-5.316-2.048-6.306-1.586-6.216-0.6h-1.442l-1.442 0.6-1.080 2.44-1.848 1.194-2.388 5.822-1.486 3.152-1.576 4.492-1.306 4.71-0.72 4.608-1.938 10.538-0.766 6.194v20.35l0.766 15.134 1.216 7.758 1.442 7.996 1.306 8.604 2.342 7.994 2.614 9.224 2.702 8.954 3.604 9.22 3.422 8.84 4.686 8.962 4.414 9.686 5.316 9.088 6.304 9.82 6.398 8.84 6.666 9.808 5.586 6.792 7.162 7.874 7.478 7.88 3.512 3.75 4.234 4.246 6.172 5.348 6.306 5.44 10.314 9.212 7.794 5.674z" />
      <glyph unicode="&#xe909;" glyph-name="wechat" d="M669.103 592.162c10.238 0 20.367-0.751 30.414-1.87-27.328 127.249-163.368 221.791-318.657 221.791-173.605 0-315.816-118.336-315.816-268.599 0-86.735 47.313-157.963 126.375-213.207l-31.587-95.004 110.405 55.364c39.504-7.819 71.201-15.861 110.622-15.861 9.911 0 19.74 0.491 29.486 1.258-6.171 21.116-9.746 43.231-9.746 66.174 0.001 137.979 118.486 249.954 268.504 249.954zM499.292 677.792c23.779 0 39.53-15.643 39.53-39.41 0-23.669-15.752-39.531-39.53-39.531-23.671 0-47.422 15.861-47.422 39.531 0 23.765 23.751 39.41 47.422 39.41zM278.264 598.851c-23.67 0-47.558 15.861-47.558 39.531 0 23.766 23.887 39.41 47.558 39.41 23.669 0 39.422-15.643 39.422-39.41 0-23.67-15.753-39.531-39.422-39.531zM957.344 346.004c0 126.267-126.348 229.191-268.258 229.191-150.264 0-268.612-102.925-268.612-229.191 0-126.485 118.347-229.19 268.612-229.19 31.451 0 63.174 7.931 94.762 15.847l86.624-47.434-23.752 78.926c63.393 47.56 110.623 110.625 110.623 181.852zM601.996 385.522c-15.725 0-31.586 15.643-31.586 31.602 0 15.737 15.861 31.586 31.586 31.586 23.891 0 39.533-15.849 39.533-31.586 0-15.958-15.642-31.602-39.533-31.602zM775.713 385.522c-15.617 0-31.368 15.643-31.368 31.602 0 15.737 15.753 31.586 31.368 31.586 23.669 0 39.531-15.849 39.531-31.586 0-15.958-15.862-31.602-39.531-31.602z" />
      <glyph unicode="&#xe90a;" glyph-name="tel" d="M512 960c-282.624 0-512-229.376-512-512s229.376-512 512-512c282.624 0 512 229.376 512 512s-229.376 512-512 512zM512-17.92c-257.536 0-465.92 208.384-465.92 465.92s208.384 465.92 465.92 465.92 465.92-208.384 465.92-465.92-208.384-465.92-465.92-465.92zM460.8 609.792v0c8.704 9.216 8.192 22.528 0 30.72v0c0 0-110.592 110.592-110.592 110.592-8.704 8.704-22.016 8.192-30.72 0l-38.912-38.912 141.312-141.312c0 0 38.912 38.912 38.912 38.912zM531.456 385.024c-31.232 25.6-67.584 59.904-99.328 99.328-22.016 27.136-41.472 55.808-21.504 76.288l-141.312 140.8c-20.48-25.6-66.048-147.968 129.536-348.16 206.336-210.944 339.456-165.888 362.496-142.336l-137.728 137.728c-19.456-19.456-44.544-2.56-92.16 36.352zM811.008 290.816c0 0-107.52 107.008-107.52 107.52-8.704 8.704-22.016 8.192-30.72 0l-38.912-38.912 138.24-138.24c0 0 38.912 38.912 38.912 38.912v0c9.216 8.704 8.192 22.528 0 30.72v0z" />
      <glyph unicode="&#xe90b;" glyph-name="apple" d="M644.48 754.816c49.344 57.472 44.864 142.528 44.864 142.528s-84.224-7.808-133.536-65.344c-49.344-57.376-44.864-142.592-44.864-142.592s84.192 7.872 133.536 65.408v0zM751.456 423.168c0 72.544 40 135.744 98.976 168.576-41.216 59.52-113.728 92.48-164.096 92.48-60.576 0-144.032-42.784-168.256-42.784-25.728 0-79.648 38.688-151.488 39.744-59.328 0.864-159.008-33.632-193.888-135.968-34.848-102.24-33.216-250.080 39.712-387.424 58.496-109.984 110.208-154.528 160.224-154.528 50.080 0 109.088 38.208 156.096 38.208 46.944 0 90.912-38.208 139.424-38.208 48.416 0 98.432 39.776 134.784 94.688 36.352 55.040 69.76 140.512 69.76 140.512s0.192 2.24 0.672 5.504c-71.328 27.84-121.92 97.536-121.92 179.2v0z" />
      <glyph unicode="&#xe90c;" glyph-name="android" d="M963.616 612.916q23.342 0 39.58-14.716t16.238-36.028v-299.386q0-20.298-16.238-35.014t-39.58-14.716h-18.268q-23.342 0-39.58 14.716t-16.238 35.014v299.386q0 21.312 16.238 36.028t39.58 14.716h18.268zM140.558 612.916q23.342 0 38.564-14.716t15.224-36.028v-299.386q0-20.298-15.224-35.014t-38.564-14.716h-18.268q-23.342 0-39.58 14.716t-16.238 35.014v299.386q0 21.312 16.238 36.028t39.58 14.716h18.268zM700.764 848.364q18.268-8.118 38.058-22.328t38.058-33.492 31.968-42.116 19.79-48.206h-576.444q16.238 53.788 51.25 88.294t70.534 54.802l-51.758 81.188q-2.030 2.030-0.508 7.612t10.656 11.67q8.118 7.104 15.224 6.598t9.134-2.536l52.774-83.218q28.416 13.192 59.878 20.296t64.95 7.104q69.010 0 128.888-28.416l53.788 84.234q2.030 2.030 7.61 2.030t16.746-6.090q10.15-5.074 11.672-9.134t-0.506-6.090zM417.618 761.086q13.192 0 22.326 9.134t9.134 22.326-9.134 22.326-22.326 9.134-22.326-9.134-9.134-22.326 9.134-22.326 22.326-9.134zM667.274 765.146q13.192 0 22.326 9.134t9.134 22.326-9.134 22.326-22.326 9.134-22.326-9.134-9.134-22.326 9.134-22.326 22.326-9.134zM828.638 638.286l1.014-456.69q0-22.326-14.716-37.55t-36.028-15.222h-14.208v-142.082q0-20.298-14.716-35.52t-36.028-15.222h-29.432q-20.298 0-35.014 15.222t-14.716 35.52v142.082h-186.736v-142.082q0-20.298-14.716-35.52t-36.028-15.222h-29.43q-20.298 0-35.012 15.222t-14.716 35.52v142.082h-11.164q-21.312 0-36.028 15.222t-14.716 37.55v456.69h572.384z" />
      <glyph unicode="&#xe90d;" glyph-name="arrow-drop-down" d="M0 721.495l511.8-486.211 511.8 486.211z" />
      <glyph unicode="&#xe90e;" glyph-name="phone" d="M177.493 888.32v-880.64c0-30.72 23.893-54.613 54.613-54.613h549.547c30.72 0 54.613 23.893 54.613 54.613v880.64c0 30.72-23.893 54.613-54.613 54.613h-549.547c-30.72 0-54.613-23.893-54.613-54.613zM505.173 7.68c-13.653 0-27.307 13.653-27.307 27.307s13.653 27.307 27.307 27.307c13.653 0 27.307-13.653 27.307-27.307s-10.24-27.307-27.307-27.307zM781.653 116.907h-549.547v662.187h549.547v-662.187z" />
      <glyph unicode="&#xe90f;" glyph-name="password" d="M788.48 557.227h-30.72v116.053c0 143.36-102.4 252.587-245.76 252.587-143.36 3.413-238.933-112.64-238.933-252.587v-119.467h-30.72c-68.267 0-122.88-54.613-122.88-122.88v-372.053c0-68.267 54.613-122.88 122.88-122.88h549.547c68.267 0 122.88 54.613 122.88 122.88v375.467c-3.413 68.267-58.027 122.88-126.293 122.88v0zM331.093 673.28c0 105.813 71.68 191.147 180.907 191.147s184.32-85.333 184.32-191.147v-119.467h-365.227v119.467zM849.92 62.293c0-34.133-27.307-61.44-61.44-61.44h-546.133c-34.133 0-61.44 27.307-61.44 61.44v372.053c0 34.133 27.307 61.44 61.44 61.44h549.547c34.133 0 61.44-27.307 61.44-61.44v-372.053zM515.413 369.493c-34.133 0-61.44-27.307-61.44-61.44 0-23.893 13.653-44.373 30.72-54.613v-102.4c0-17.067 13.653-30.72 30.72-30.72s30.72 13.653 30.72 30.72v102.4c17.067 10.24 30.72 30.72 30.72 54.613 0 34.133-27.307 61.44-61.44 61.44v0z" />
      <glyph unicode="&#xe910;" glyph-name="psw-again" d="M815.787 567.467h-37.547v126.293c0 68.267-23.893 129.707-68.267 177.493s-105.813 71.68-174.080 71.68c-68.267 0-129.707-27.307-174.080-71.68-40.96-44.373-64.853-109.227-64.853-177.493v-126.293h-37.547c-64.853 0-116.053-54.613-116.053-119.467v-375.467c0-64.853 51.2-119.467 116.053-119.467h556.373c64.853 0 116.053 54.613 116.053 119.467v375.467c0 64.853-51.2 119.467-116.053 119.467v0zM344.747 570.88v122.88c0 116.053 81.92 201.387 191.147 201.387 112.64 0 194.56-85.333 194.56-201.387v-126.293l-385.707 3.413zM884.053 72.533c0-37.547-30.72-68.267-68.267-68.267h-556.373c-37.547 0-68.267 30.72-68.267 68.267v375.467c0 37.547 30.72 68.267 68.267 68.267h556.373c37.547 0 68.267-30.72 68.267-68.267v-375.467zM733.867 362.667l-13.653 13.653c-6.827 6.827-13.653 6.827-20.48 0l-187.733-187.733-133.12 133.12c-3.413 3.413-6.827 3.413-10.24 3.413s-6.827 0-10.24-3.413l-17.067-13.653c-6.827-6.827-6.827-13.653 0-20.48l157.013-157.013c3.413-3.413 6.827-3.413 10.24-3.413s6.827 0 10.24 3.413l211.627 211.627c3.413 3.413 3.413 6.827 3.413 10.24 3.413 3.413 3.413 10.24 0 10.24z" />
      <glyph unicode="&#xe911;" glyph-name="phone2" d="M525.653 151.040c-27.307 0-51.2-23.893-51.2-51.2s23.893-51.2 51.2-51.2c27.307 0 51.2 23.893 51.2 51.2s-23.893 51.2-51.2 51.2v0zM774.827 946.347h-498.347c-40.96 0-75.093-34.133-75.093-75.093v-836.267c0-40.96 34.133-75.093 75.093-75.093h498.347c40.96 0 75.093 34.133 75.093 75.093v832.853c0 44.373-34.133 78.507-75.093 78.507v0zM276.48 895.147h498.347c13.653 0 23.893-10.24 23.893-23.893v-628.053h-549.547v624.64c0 13.653 13.653 27.307 27.307 27.307v0zM774.827 4.267h-498.347c-13.653 0-23.893 10.24-23.893 23.893v153.6h549.547v-153.6c-3.413-10.24-13.653-23.893-27.307-23.893v0z" />
      <glyph unicode="&#xe912;" glyph-name="verify" d="M522.24 956.587c109.227-81.92 225.28-139.947 423.253-139.947v-368.64c0-174.080-225.28-481.28-423.253-481.28s-423.253 307.2-423.253 481.28v365.227c197.973 0 314.027 58.027 423.253 143.36v0zM522.24 874.667c-88.747-71.68-187.733-119.467-354.987-119.467v-303.787c0-146.773 187.733-402.773 354.987-402.773s354.987 256 354.987 402.773v303.787c-167.253 0-266.24 47.787-354.987 119.467v0zM771.413 608.427l-27.307 27.307c-6.827 6.827-20.48 6.827-27.307-3.413l-252.587-252.587-133.12 126.293c-13.653 6.827-23.893 10.24-30.72 3.413l-27.307-30.72c-6.827-6.827-3.413-20.48 3.413-27.307l167.253-160.427c3.413-3.413 6.827-6.827 10.24-6.827 6.827-3.413 17.067 0 23.893 6.827l286.72 286.72c10.24 10.24 13.653 23.893 6.827 30.72v0z" />
      <glyph unicode="&#xe913;" glyph-name="user" d="M583.68 475.307h-37.547c-194.56 0-351.573-160.427-351.573-358.4v-126.293c20.48-13.653 44.373-27.307 64.853-37.547v167.253c0 160.427 129.707 290.133 286.72 290.133h37.547c157.013 0 286.72-129.707 286.72-290.133v-167.253c23.893 10.24 44.373 23.893 64.853 37.547v126.293c0 197.973-157.013 358.4-351.573 358.4v0zM552.96 519.68c116.053 0 208.213 95.573 208.213 211.627s-92.16 211.627-208.213 211.627c-116.053 0-208.213-95.573-208.213-211.627s95.573-211.627 208.213-211.627v0zM552.96 874.667c78.507 0 143.36-64.853 143.36-143.36s-64.853-143.36-143.36-143.36c-78.507 0-143.36 64.853-143.36 143.36 3.413 78.507 64.853 143.36 143.36 143.36v0z" />
      <glyph unicode="&#xe914;" glyph-name="finish" d="M160.427 785.92c75.093 75.093 170.667 122.88 279.893 139.947 129.707 17.067 259.413-13.653 365.227-92.16s174.080-194.56 194.56-324.267c37.547-269.653-150.187-518.827-419.84-559.787-112.64-17.067-228.693 6.827-327.68 68.267-17.067 10.24-20.48 30.72-10.24 47.787 10.24 13.653 30.72 17.067 47.787 6.827 81.92-51.2 184.32-71.68 279.893-58.027 232.107 34.133 392.533 249.173 358.4 477.867-17.067 112.64-75.093 211.627-163.84 279.893-92.16 68.267-201.387 95.573-314.027 78.507-232.107-34.133-392.533-249.173-358.4-477.867 10.24-61.44 30.72-116.053 61.44-167.253 10.24-17.067 6.827-37.547-10.24-47.787s-37.547-6.827-47.787 10.24c-37.547 58.027-61.44 126.293-71.68 194.56-23.893 133.12 10.24 262.827 88.747 368.64 13.653 20.48 30.72 37.547 47.787 54.613v0zM791.893 656.213c-13.653 13.653-37.547 13.653-51.2 0l-307.2-324.267-157.013 150.187c-10.24 10.24-34.133 13.653-47.787 0s-13.653-37.547 0-47.787l187.733-177.493c0 0 0 0 0 0s0 0 0 0c3.413-3.413 3.413-3.413 6.827-3.413 0 0 3.413 0 3.413-3.413 3.413 0 6.827-3.413 10.24-3.413s6.827 0 10.24 3.413c0 0 3.413 0 3.413 3.413 3.413 0 3.413 3.413 6.827 3.413 0 0 0 0 0 0s0 0 0 0l341.333 348.16c10.24 20.48 3.413 40.96-6.827 51.2v0z" />
      <glyph unicode="&#xe915;" glyph-name="active-num" d="M863.573 321.707c-3.413 6.827-6.827 13.653-13.653 17.067l-235.52 112.64c-30.72-17.067-64.853-27.307-102.4-27.307s-75.093 10.24-105.813 30.72l-242.347-116.053c-6.827-3.413-10.24-10.24-13.653-17.067l-85.333-286.72c-3.413-44.373 30.72-81.92 75.093-81.92h730.453c44.373 0 81.92 37.547 75.093 81.92l-81.92 286.72zM686.080 768.853c0 95.573-78.507 174.080-174.080 174.080s-174.080-78.507-174.080-174.080v-116.053c0-95.573 78.507-174.080 174.080-174.080s174.080 78.507 174.080 174.080v116.053z" />
      <glyph unicode="&#xe916;" glyph-name="strategy-num" d="M518.827 929.28c-273.067 0-494.933-221.867-494.933-494.933s221.867-494.933 494.933-494.933c273.067 0 494.933 221.867 494.933 494.933s-218.453 494.933-494.933 494.933zM853.333 506.027c-17.067-17.067-37.547-20.48-58.027-17.067l-129.707-129.707c6.827-20.48 0-44.373-17.067-58.027-23.893-23.893-64.853-23.893-88.747 0-13.653 13.653-20.48 34.133-17.067 54.613l-109.227 92.16c-10.24-3.413-20.48-3.413-34.133-3.413l-109.227-109.227c3.413-20.48-3.413-40.96-17.067-54.613-23.893-23.893-64.853-23.893-88.747 0s-23.893 64.853 0 88.747c20.48 13.653 44.373 17.067 68.267 10.24l102.4 102.4c-6.827 20.48-3.413 47.787 13.653 64.853 23.893 23.893 64.853 23.893 88.747 0 13.653-13.653 20.48-34.133 17.067-54.613l109.227-92.16c10.24 3.413 23.893 3.413 37.547 0l129.707 129.707c-6.827 20.48 0 44.373 17.067 58.027 23.893 23.893 64.853 23.893 88.747 0 20.48-20.48 20.48-58.027-3.413-81.92z" />
      <glyph unicode="&#xe917;" glyph-name="profit-num" d="M453.973 355.84v535.893c-235.52-30.72-419.84-232.107-419.84-474.453 0-266.24 215.040-481.28 481.28-481.28 245.76 0 447.147 184.32 474.453 419.84h-535.893zM515.413 925.867v-508.587h508.587c0 279.893-228.693 508.587-508.587 508.587z" />
      <glyph unicode="&#xe918;" glyph-name="chevron-thin-down" d="M132.198 634.42c-13.926 13.722-36.302 13.722-50.126 0s-13.876-35.89 0-49.614l404.89-400.896c13.824-13.722 36.198-13.722 50.126 0l404.89 400.896c13.824 13.722 13.824 35.89 0 49.614-13.876 13.722-36.302 13.722-50.074 0l-379.904-365.62-379.802 365.62z" />
      <glyph unicode="&#xe919;" glyph-name="chevron-thin-left" d="M698.42 68.198c13.722-13.926 13.722-36.302 0-50.126s-35.89-13.876-49.614 0l-400.896 404.89c-13.722 13.824-13.722 36.198 0 50.126l400.896 404.89c13.722 13.824 35.89 13.824 49.614 0 13.722-13.876 13.722-36.302 0-50.074l-365.62-379.904 365.62-379.802z" />
      <glyph unicode="&#xe91a;" glyph-name="warning-null" d="M512 857.6c-225.28 0-409.6-184.32-409.6-409.6s184.32-409.6 409.6-409.6 409.6 184.32 409.6 409.6-184.32 409.6-409.6 409.6zM552.96 678.4l-15.36-281.6h-53.76l-12.8 281.6h81.92zM547.84 230.4c-10.24-7.68-23.040-12.8-35.84-12.8s-25.6 5.12-35.84 12.8c-10.24 10.24-15.36 23.040-15.36 38.4s5.12 25.6 15.36 35.84c10.24 10.24 20.48 15.36 35.84 15.36s25.6-5.12 35.84-15.36c10.24-10.24 15.36-20.48 15.36-35.84s-5.12-28.16-15.36-38.4z" />
      <glyph unicode="&#xe91b;" glyph-name="company1" d="M503.808-20.992c-266.24 0-479.232 226.304-459.776 496.64 17.408 224.256 199.68 406.528 424.96 422.912 270.336 20.48 496.64-193.536 496.64-459.776 0-57.344-10.24-113.664-30.72-165.888-2.048-5.12-7.168-7.168-12.288-5.12v0c-4.096 2.048-7.168 7.168-5.12 11.264 19.456 51.2 29.696 104.448 29.696 159.744 0 254.976-217.088 460.8-477.184 441.344-216.064-15.36-391.168-190.464-407.552-406.528-19.456-260.096 186.368-477.184 441.344-477.184 122.88 0 240.64 51.2 324.608 142.336 3.072 4.096 9.216 4.096 12.288 1.024v0c4.096-3.072 4.096-9.216 1.024-13.312-87.040-94.208-208.896-147.456-337.92-147.456zM879.616 187.904v0c-4.096 3.072-5.12 8.192-2.048 12.288 2.048 4.096 5.12 7.168 7.168 11.264s8.192 6.144 12.288 3.072v0c4.096-2.048 6.144-8.192 3.072-12.288-2.048-4.096-5.12-8.192-7.168-12.288-4.096-4.096-9.216-5.12-13.312-2.048zM652.288 505.344h-19.456c-2.048 0-4.096 2.048-4.096 4.096v60.416c0 37.888-20.48 73.728-53.248 93.184-95.232 55.296-193.536-13.312-193.536-103.424v-50.176c0-2.048-2.048-4.096-4.096-4.096h-21.504c-26.624 0-48.128-21.504-48.128-48.128v-212.992c0-26.624 21.504-48.128 48.128-48.128h295.936c26.624 0 48.128 21.504 48.128 48.128v212.992c0 26.624-21.504 48.128-48.128 48.128zM398.336 558.592c0 79.872 88.064 139.264 172.032 87.040 25.6-16.384 41.984-45.056 41.984-75.776v-60.416c0-2.048-2.048-4.096-4.096-4.096h-204.8c-2.048 0-4.096 2.048-4.096 4.096v49.152zM684.032 244.224c0-17.408-14.336-31.744-31.744-31.744h-295.936c-17.408 0-31.744 14.336-31.744 31.744v212.992c0 17.408 14.336 31.744 31.744 31.744h295.936c17.408 0 31.744-14.336 31.744-31.744v-212.992zM529.408 382.464c0 15.36-14.336 27.648-29.696 24.576-10.24-2.048-17.408-10.24-19.456-19.456-2.048-12.288 4.096-22.528 13.312-27.648 1.024-1.024 2.048-2.048 2.048-4.096v-48.128c0-5.12 4.096-8.192 8.192-8.192v0c5.12 0 8.192 4.096 8.192 8.192v48.128c0 2.048 1.024 3.072 2.048 4.096 9.216 4.096 15.36 12.288 15.36 22.528zM503.808 373.248c-4.096 0-8.192 4.096-8.192 8.192s4.096 8.192 8.192 8.192c4.096 0 8.192-4.096 8.192-8.192s-3.072-8.192-8.192-8.192z" />
      <glyph unicode="&#xe91c;" glyph-name="company2" d="M514.048 1.536c-266.24 0-479.232 226.304-459.776 496.64 17.408 225.28 199.68 407.552 424.96 423.936 270.336 20.48 496.64-193.536 496.64-459.776 0-57.344-10.24-113.664-30.72-165.888-2.048-5.12-7.168-7.168-12.288-5.12v0c-4.096 2.048-7.168 7.168-5.12 11.264 19.456 51.2 29.696 104.448 29.696 159.744 0 254.976-217.088 460.8-477.184 441.344-216.064-15.36-391.168-190.464-407.552-406.528-19.456-260.096 186.368-477.184 441.344-477.184 122.88 0 240.64 51.2 324.608 142.336 3.072 4.096 9.216 4.096 12.288 1.024v0c4.096-3.072 4.096-9.216 1.024-13.312-86.016-94.208-208.896-148.48-337.92-148.48zM889.856 211.456v0c-4.096 3.072-5.12 8.192-2.048 12.288 2.048 4.096 5.12 7.168 7.168 11.264s8.192 6.144 12.288 3.072v0c4.096-2.048 6.144-8.192 3.072-12.288-2.048-4.096-5.12-8.192-7.168-12.288-3.072-4.096-9.216-5.12-13.312-2.048zM633.856 652.8l-239.616 1.024c-1.024 0-3.072-1.024-4.096-2.048l-110.592-147.456c-1.024-2.048-1.024-4.096 0-6.144l230.4-262.144c2.048-2.048 5.12-2.048 7.168 0l231.424 261.12c1.024 2.048 1.024 4.096 0 6.144l-111.616 147.456c0 1.024-2.048 2.048-3.072 2.048zM410.624 489.984l73.728-190.464c1.024-2.048-2.048-3.072-3.072-2.048l-168.96 192.512c-1.024 1.024 0 3.072 1.024 3.072h92.16c2.048 0 4.096-1.024 5.12-3.072zM598.016 486.912l-81.92-211.968c-1.024-2.048-3.072-2.048-3.072 0l-81.92 211.968c-1.024 3.072 1.024 6.144 4.096 6.144h158.72c3.072 0 5.12-3.072 4.096-6.144zM431.104 517.632l43.008 114.688c1.024 2.048 2.048 3.072 4.096 3.072h70.656c2.048 0 3.072-1.024 4.096-3.072l44.032-114.688c1.024-3.072-1.024-6.144-4.096-6.144h-157.696c-3.072 0-6.144 3.072-4.096 6.144zM622.592 493.056h94.208c2.048 0 2.048-2.048 1.024-3.072l-169.984-191.488c-1.024-1.024-4.096 0-3.072 2.048l72.704 189.44c1.024 2.048 3.072 3.072 5.12 3.072zM716.8 511.488h-94.208c-2.048 0-3.072 1.024-4.096 3.072l-44.032 114.688c-1.024 3.072 1.024 6.144 4.096 6.144h46.080c1.024 0 3.072-1.024 3.072-2.048l90.112-118.784c1.024-2.048 0-3.072-1.024-3.072zM402.432 635.392h47.104c3.072 0 5.12-3.072 4.096-6.144l-44.032-114.688c-1.024-2.048-2.048-3.072-4.096-3.072h-95.232c-1.024 0-2.048 2.048-1.024 3.072l90.112 119.808c1.024 1.024 2.048 2.048 3.072 1.024z" />
      <glyph unicode="&#xe91d;" glyph-name="company3" d="M513.024-16.896c-266.24 0-479.232 226.304-459.776 496.64 17.408 225.28 198.656 407.552 423.936 423.936 270.336 20.48 496.64-193.536 496.64-459.776 0-57.344-10.24-113.664-30.72-165.888-2.048-5.12-7.168-7.168-12.288-5.12v0c-4.096 2.048-7.168 7.168-5.12 11.264 19.456 51.2 29.696 104.448 29.696 159.744 0 254.976-217.088 460.8-477.184 441.344-216.064-15.36-390.144-190.464-406.528-406.528-19.456-260.096 185.344-477.184 441.344-477.184 122.88 0 240.64 51.2 324.608 142.336 3.072 4.096 9.216 4.096 12.288 1.024v0c4.096-3.072 4.096-9.216 1.024-13.312-87.040-94.208-209.92-148.48-337.92-148.48zM887.808 193.024v0c-4.096 3.072-5.12 8.192-2.048 12.288 2.048 4.096 5.12 7.168 7.168 11.264s8.192 6.144 12.288 3.072v0c4.096-2.048 6.144-8.192 3.072-12.288-2.048-4.096-5.12-8.192-7.168-12.288-3.072-4.096-9.216-5.12-13.312-2.048zM372.736 248.32v0c-5.12 0-9.216 4.096-9.216 9.216v161.792c0 5.12 4.096 9.216 9.216 9.216v0c5.12 0 9.216-4.096 9.216-9.216v-161.792c0-5.12-4.096-9.216-9.216-9.216zM470.016 248.32v0c-5.12 0-9.216 4.096-9.216 9.216v194.56c0 5.12 4.096 9.216 9.216 9.216v0c5.12 0 9.216-4.096 9.216-9.216v-194.56c0-5.12-4.096-9.216-9.216-9.216zM566.272 248.32v0c-5.12 0-9.216 4.096-9.216 9.216v225.28c0 5.12 4.096 9.216 9.216 9.216v0c5.12 0 9.216-4.096 9.216-9.216v-225.28c0-5.12-4.096-9.216-9.216-9.216zM661.504 248.32v0c-5.12 0-9.216 4.096-9.216 9.216v288.768c0 5.12 4.096 9.216 9.216 9.216v0c5.12 0 9.216-4.096 9.216-9.216v-288.768c0-5.12-4.096-9.216-9.216-9.216zM400.384 489.984c-2.048-2.048-4.096-2.048-6.144 0l-55.296 43.008c-4.096 3.072-5.12 9.216-2.048 12.288v0c3.072 4.096 9.216 5.12 12.288 2.048l43.008-32.768c2.048-1.024 4.096-1.024 6.144 0l54.272 55.296c1.024 1.024 4.096 2.048 5.12 1.024l57.344-35.84c1.024-1.024 3.072-1.024 5.12 0l90.112 59.392c2.048 2.048 3.072 5.12 1.024 7.168l-28.672 30.72c-3.072 3.072-1.024 8.192 3.072 7.168l94.208-1.024c10.24-1.024 13.312-14.336 5.12-19.456l-163.84-106.496c-1.024-1.024-3.072-1.024-5.12 0l-55.296 33.792c-2.048 1.024-4.096 1.024-5.12-1.024l-55.296-55.296z" />
      <glyph unicode="&#xe91e;" glyph-name="company4" d="M508.928-24.064c-266.24 0-479.232 226.304-459.776 496.64 17.408 225.28 198.656 407.552 423.936 423.936 270.336 20.48 496.64-193.536 496.64-459.776 0-57.344-10.24-113.664-30.72-165.888-2.048-5.12-7.168-7.168-12.288-5.12v0c-4.096 2.048-7.168 7.168-5.12 11.264 19.456 51.2 29.696 104.448 29.696 159.744 0 254.976-217.088 460.8-477.184 441.344-216.064-16.384-390.144-191.488-406.528-407.552-19.456-260.096 186.368-477.184 441.344-477.184 122.88 0 240.64 51.2 324.608 142.336 3.072 4.096 9.216 4.096 12.288 1.024v0c4.096-3.072 4.096-9.216 1.024-13.312-87.040-94.208-209.92-147.456-337.92-147.456zM883.712 184.832v0c-4.096 3.072-5.12 8.192-2.048 12.288 2.048 4.096 5.12 7.168 7.168 11.264s8.192 6.144 12.288 3.072v0c4.096-2.048 6.144-8.192 3.072-12.288-2.048-4.096-5.12-8.192-7.168-12.288-3.072-4.096-9.216-5.12-13.312-2.048zM504.832 193.024c-6.144 3.072-155.648 81.92-187.392 182.272-5.12 10.24-8.192 48.128-5.12 205.824 0 6.144 8.192 9.216 8.192 9.216 1.024 0 77.824 12.288 183.296 89.088 0 0 4.096 3.072 11.264 0 1.024-1.024 76.8-62.464 183.296-89.088 0 0 7.168 0 7.168-8.192 0-7.168 4.096-167.936-3.072-201.728-10.24-44.032-65.536-118.784-188.416-186.368-1.024-1.024-4.096-3.072-9.216-1.024zM332.8 390.656c0 0 0-1.024 0 0l2.048-8.192c24.576-82.944 143.36-153.6 172.032-169.984 1.024-1.024 3.072-1.024 4.096 0 148.48 83.968 171.008 161.792 172.032 169.984 5.12 23.552 4.096 128 3.072 187.392 0 2.048-1.024 4.096-3.072 4.096-86.016 23.552-150.528 67.584-172.032 83.968-2.048 1.024-4.096 1.024-5.12 0-82.944-59.392-147.456-78.848-172.032-83.968-2.048 0-3.072-2.048-3.072-4.096-2.048-123.904 0-164.864 2.048-179.2zM483.328 356.864c-2.048-2.048-5.12-2.048-6.144 0l-90.112 91.136c-3.072 3.072-3.072 9.216 0 12.288v0c3.072 3.072 9.216 3.072 12.288 0l77.824-77.824c2.048-2.048 5.12-2.048 6.144 0l134.144 133.12c3.072 3.072 9.216 3.072 12.288 0v0c3.072-3.072 3.072-9.216 0-12.288l-146.432-146.432z" />
      <glyph unicode="&#xe91f;" glyph-name="psw-info" d="M498.347 925.867c-273.067 0-494.933-221.867-494.933-494.933s221.867-494.933 494.933-494.933c273.067 0 494.933 221.867 494.933 494.933s-221.867 494.933-494.933 494.933zM733.867 192c0-6.827-6.827-13.653-13.653-13.653h-440.32c-6.827 0-13.653 6.827-13.653 13.653v276.48c0 6.827 6.827 13.653 13.653 13.653h44.373v88.747c0 95.573 78.507 174.080 174.080 174.080s174.080-78.507 174.080-174.080v-88.747h44.373c6.827 0 13.653-6.827 13.653-13.653v-276.48zM645.12 570.88c0 78.507-64.853 146.773-146.773 146.773s-146.773-64.853-146.773-146.773v-88.747h290.133v88.747z" />
      <glyph unicode="&#xe920;" glyph-name="real-info" d="M501.76 946.347c-273.067 0-494.933-221.867-494.933-494.933s221.867-494.933 494.933-494.933 494.933 221.867 494.933 494.933c0 273.067-221.867 494.933-494.933 494.933zM375.467 666.453c0 54.613 44.373 98.987 102.4 98.987s98.987-44.373 98.987-98.987v-68.267c0-54.613-44.373-98.987-98.987-98.987s-102.4 44.373-102.4 98.987v68.267zM651.947 198.827h-385.707c-27.307 0-47.787 20.48-44.373 47.787l47.787 163.84c3.413 3.413 3.413 6.827 10.24 6.827l136.533 64.853c0 0 0 0 3.413 0 17.067-10.24 37.547-17.067 58.027-17.067s40.96 6.827 58.027 17.067c0 0 0 0 3.413 0l64.853-30.72c0 0 0-3.413 0-3.413-30.72-27.307-51.2-64.853-51.2-109.227 0-64.853 44.373-119.467 105.813-136.533-3.413 0-6.827-3.413-6.827-3.413zM689.493 243.2c-51.2 0-95.573 40.96-95.573 95.573 0 51.2 40.96 95.573 95.573 95.573 51.2 0 95.573-40.96 95.573-95.573 0-51.2-44.373-95.573-95.573-95.573zM733.867 383.147l-61.44-61.44c0 0 0 0 0 0l-27.307 23.893c-3.413 3.413-10.24 3.413-17.067 0-3.413-3.413-3.413-10.24 0-17.067l40.96-40.96c0 0 0 0 0 0l78.507 78.507c3.413 3.413 3.413 10.24 0 17.067s-10.24 6.827-13.653 0z" />
      <glyph unicode="&#xe921;" glyph-name="phone-info" d="M529.067 946.347c-273.067 0-494.933-221.867-494.933-494.933s221.867-494.933 494.933-494.933 494.933 221.867 494.933 494.933-221.867 494.933-494.933 494.933zM723.627 171.52c0-3.413-3.413-10.24-10.24-10.24h-368.64c-3.413 0-10.24 3.413-10.24 10.24v563.2c0 3.413 3.413 10.24 10.24 10.24h372.053c3.413 0 10.24-3.413 10.24-10.24v-563.2zM686.080 645.973h-310.613c-3.413 0-6.827-3.413-6.827-6.827v-375.467c0-3.413 3.413-6.827 6.827-6.827h310.613c3.413 0 6.827 3.413 6.827 6.827v375.467c0 3.413-3.413 6.827-6.827 6.827zM546.133 209.067c0-9.426-7.641-17.067-17.067-17.067s-17.067 7.641-17.067 17.067c0 9.426 7.641 17.067 17.067 17.067s17.067-7.641 17.067-17.067z" />
      <glyph unicode="&#xe922;" glyph-name="right" d="M325.58 68.198c-13.722-13.926-13.722-36.302 0-50.126s35.89-13.876 49.614 0l400.896 404.89c13.722 13.824 13.722 36.198 0 50.126l-400.896 404.89c-13.722 13.824-35.89 13.824-49.614 0-13.722-13.876-13.722-36.302 0-50.074l365.62-379.904-365.62-379.802z" />
      <glyph unicode="&#xe923;" glyph-name="warning2" d="M512 857.6c-225.28 0-409.6-184.32-409.6-409.6s184.32-409.6 409.6-409.6 409.6 184.32 409.6 409.6-184.32 409.6-409.6 409.6zM552.96 678.4l-15.36-281.6h-53.76l-12.8 281.6h81.92zM547.84 230.4c-10.24-7.68-23.040-12.8-35.84-12.8s-25.6 5.12-35.84 12.8c-10.24 10.24-15.36 23.040-15.36 38.4s5.12 25.6 15.36 35.84c10.24 10.24 20.48 15.36 35.84 15.36s25.6-5.12 35.84-15.36c10.24-10.24 15.36-20.48 15.36-35.84s-5.12-28.16-15.36-38.4z" />
      <glyph unicode="&#xe924;" glyph-name="tip" d="M512 905.728q95.232 0 178.688-36.352t145.408-98.304 98.304-145.92 36.352-179.2-36.352-178.688-98.304-145.408-145.408-98.304-178.688-36.352-179.2 36.352-145.92 98.304-98.304 145.408-36.352 178.688 36.352 179.2 98.304 145.92 145.92 98.304 179.2 36.352zM567.296 509.44q0 24.576-15.872 41.472t-39.424 16.896-39.936-16.896-16.384-41.472v-343.040q0-24.576 16.384-39.424t39.936-14.848 39.936 15.36 16.384 39.936zM512 636.416q29.696 0 50.688 20.992t20.992 50.688-20.992 50.688-50.688 20.992-51.2-20.992-21.504-50.688 21.504-50.688 51.2-20.992z" />
      <glyph unicode="&#xe925;" glyph-name="top" d="M267.374 205.528h493.675v341.781h98.089l-346.084 346.214-346.022-346.214h100.342v-341.781zM256.638 7.931h524.529v98.735h-524.529v-98.735z" />
      <glyph unicode="&#xe926;" glyph-name="question" d="M512 960c-282.752 0-512-229.248-512-512s229.248-512 512-512c282.752 0 512 229.248 512 512s-229.248 512-512 512zM508.8 147.328c-36.032 1.024-64.32 25.92-63.168 63.616s30.848 61.76 66.88 60.736c37.632-1.088 65.088-26.752 63.936-64.448s-30.016-60.992-67.648-59.904zM676.16 491.968c-9.6-13.12-31.296-29.888-58.496-50.368l-30.144-20.032c-14.592-10.944-27.584-23.68-32.384-38.336-2.496-7.744-4.096-14.528-4.672-27.968-0.128-2.624-1.856-8.704-10.304-8.704h-85.12c-9.472 0-10.496 5.376-10.432 8 1.344 36.8 2.688 62.4 17.792 79.488 26.048 29.504 85.44 66.24 85.44 66.24 9.088 6.528 16.384 13.696 21.888 21.504 10.048 13.376 18.432 28.096 18.432 44.16 0 18.496-5.632 35.328-16.832 50.496-11.2 15.296-31.68 22.912-61.376 22.912-29.248 0-49.92-9.344-62.144-28.096-8.384-12.864-13.888-25.984-16.512-39.488-0.896-17.152-6.208-18.88-17.28-18.88h-82.048c-7.296 0-9.088 4.352-10.752 16.96 6.144 60.416 30.848 103.872 74.112 130.432 29.824 18.432 66.432 27.712 109.824 27.712 57.024 0 104.448-13.12 142.208-39.424 37.76-26.24 56.64-65.152 56.64-116.736 0-31.616-11.52-58.24-27.84-79.872z" />
      <glyph unicode="&#xe927;" glyph-name="card" d="M27.307 471.893v-310.613c0-30.72 23.893-54.613 54.613-54.613h880.64c30.72 0 54.613 23.893 54.613 54.613v310.613c0 0 0 0 0 0h-989.867c0 0 0 0 0 0zM163.84 362.667c0 10.24 6.827 17.067 17.067 17.067h269.653c10.24 0 17.067-6.827 17.067-17.067v0c0-10.24-6.827-17.067-17.067-17.067h-266.24c-10.24-3.413-20.48 6.827-20.48 17.067v0zM610.987 270.507c0-10.24-6.827-17.067-17.067-17.067h-409.6c-10.24 0-17.067 6.827-17.067 17.067v0c0 10.24 6.827 17.067 17.067 17.067h409.6c10.24 0 17.067-6.827 17.067-17.067v0zM880.64 287.573c0-20.48-17.067-37.547-37.547-37.547h-37.547c-20.48 0-37.547 17.067-37.547 37.547v0c0 20.48 17.067 37.547 37.547 37.547h37.547c20.48 0 37.547-17.067 37.547-37.547v0zM1017.173 594.773v102.4c0 30.72-23.893 54.613-54.613 54.613h-880.64c-30.72 3.413-54.613-23.893-54.613-51.2v-102.4c0 0 0 0 0 0l989.867-3.413c0 0 0 0 0 0z" />
    </font>
</defs>
</svg>
